<?xml version="1.0" encoding="UTF-8"?>
<!DOCTYPE svg PUBLIC "-//W3C//DTD SVG 1.1//EN" "http://www.w3.org/Graphics/SVG/1.1/DTD/svg11.dtd">
<svg xmlns="http://www.w3.org/2000/svg" version="1.1" width="1529px" height="1529px" style="shape-rendering:geometricPrecision; text-rendering:geometricPrecision; image-rendering:optimizeQuality; fill-rule:evenodd; clip-rule:evenodd" xmlns:xlink="http://www.w3.org/1999/xlink">
<g><path style="opacity:0.988" fill="#000000" d="M 635.5,111.5 C 636.496,111.414 637.329,111.748 638,112.5C 658.23,148.293 676.897,184.96 694,222.5C 695.318,225.406 695.652,228.406 695,231.5C 651.032,328.437 605.699,424.77 559,520.5C 551.218,526.767 542.384,530.934 532.5,533C 525.963,537.542 520.796,543.375 517,550.5C 407.847,780.471 299.514,1010.8 192,1241.5C 190.5,1245.33 189,1249.17 187.5,1253C 191.319,1258.16 195.152,1263.32 199,1268.5C 199.667,1271.17 199.667,1273.83 199,1276.5C 182.869,1315.1 165.369,1353.1 146.5,1390.5C 107.167,1391.83 67.8333,1391.83 28.5,1390.5C 216.727,993.046 405.227,595.712 594,198.5C 605.941,172.952 617.607,147.286 629,121.5C 630.928,117.968 633.095,114.634 635.5,111.5 Z"/></g>
<g><path style="opacity:0.99" fill="#1e4a83" d="M 702.5,257.5 C 704.017,257.511 705.184,258.177 706,259.5C 731.371,306.908 755.704,354.908 779,403.5C 779.667,405.167 779.667,406.833 779,408.5C 644.404,692.124 509.904,975.791 375.5,1259.5C 398.433,1261.68 421.433,1263.18 444.5,1264C 424.311,1306.21 403.978,1348.38 383.5,1390.5C 328.503,1391.67 273.503,1391.83 218.5,1391C 201.116,1390.81 183.782,1389.98 166.5,1388.5C 177.374,1363.08 188.54,1337.75 200,1312.5C 209.423,1311.68 218.923,1311.18 228.5,1311C 230.725,1310.44 232.725,1309.44 234.5,1308C 239.78,1302.05 244.28,1295.55 248,1288.5C 256,1272.5 264,1256.5 272,1240.5C 384.153,1002.53 495.487,764.194 606,525.5C 607.505,521.65 609.005,517.817 610.5,514C 610,513.833 609.5,513.667 609,513.5C 599.297,516.218 589.464,518.218 579.5,519.5C 580.16,515.687 581.326,512.021 583,508.5C 621.21,424.079 661.044,340.412 702.5,257.5 Z"/></g>
<g><path style="opacity:0.988" fill="#000000" d="M 840.5,348.5 C 988.834,348.333 1137.17,348.5 1285.5,349C 1358.79,493.756 1431.96,638.589 1505,783.5C 1495.47,813.735 1484.14,843.402 1471,872.5C 1469.44,874.768 1467.28,875.934 1464.5,876C 1455.2,877.065 1445.86,877.732 1436.5,878C 1363.83,878.445 1291.16,878.112 1218.5,877C 1199.67,843.172 1182,808.672 1165.5,773.5C 1166.38,772.749 1167.38,772.249 1168.5,772C 1191.15,770.907 1213.82,770.24 1236.5,770C 1285.17,769.667 1333.83,769.333 1382.5,769C 1389.54,768.731 1396.54,768.064 1403.5,767C 1406.55,766.394 1409.05,764.894 1411,762.5C 1411.13,757.326 1410.13,752.326 1408,747.5C 1400.61,730.381 1392.94,713.381 1385,696.5C 1344.55,615.1 1303.72,533.934 1262.5,453C 1138.52,451.461 1014.52,450.127 890.5,449C 873.423,415.679 856.756,382.179 840.5,348.5 Z"/></g>
<g><path style="opacity:0.983" fill="#000000" d="M 832.5,493.5 C 841.813,509.452 850.647,525.786 859,542.5C 1001.15,823.976 1142.65,1105.81 1283.5,1388C 1283.17,1388.33 1282.83,1388.67 1282.5,1389C 1276.56,1390.14 1270.56,1390.81 1264.5,1391C 1241.83,1391.83 1219.16,1391.67 1196.5,1390.5C 1182.97,1364.78 1169.97,1338.78 1157.5,1312.5C 1163.81,1311.67 1170.14,1311.17 1176.5,1311C 1178.38,1310.78 1180.05,1310.12 1181.5,1309C 1087.89,1122.29 993.394,936.121 898,750.5C 895.75,746.332 893.25,742.332 890.5,738.5C 889.522,738.977 888.689,739.643 888,740.5C 883.729,754.358 878.062,755.024 871,742.5C 841.706,686.078 812.539,629.578 783.5,573C 795.207,552.418 807.04,531.918 819,511.5C 822.979,505.033 827.479,499.033 832.5,493.5 Z"/></g>
<g><path style="opacity:0.982" fill="#1e4b84" d="M 770.5,603.5 C 771.496,603.414 772.329,603.748 773,604.5C 802.667,662.5 832.333,720.5 862,778.5C 862.667,779.833 862.667,781.167 862,782.5C 857.696,791.607 853.53,800.774 849.5,810C 933.198,976.562 1017.03,1143.06 1101,1309.5C 1101.75,1310.13 1102.58,1310.63 1103.5,1311C 1110.91,1311.11 1118.24,1311.78 1125.5,1313C 1127.67,1315.17 1129.83,1317.33 1132,1319.5C 1144.42,1341.84 1155.92,1364.67 1166.5,1388C 1166.17,1388.5 1165.83,1389 1165.5,1389.5C 1154.54,1390.16 1143.54,1390.49 1132.5,1390.5C 1115.24,1390.63 1098.07,1389.96 1081,1388.5C 962.698,1154.06 844.531,919.562 726.5,685C 741.311,657.875 755.978,630.708 770.5,603.5 Z"/></g>
<g><path style="opacity:0.981" fill="#000000" d="M 1044.5,766.5 C 1074.7,765.699 1105.03,766.366 1135.5,768.5C 1217.92,931.678 1300.09,1095.01 1382,1258.5C 1384.19,1301.15 1384.69,1343.82 1383.5,1386.5C 1361.49,1345.82 1339.99,1304.82 1319,1263.5C 1258.67,1144.17 1198.33,1024.83 1138,905.5C 1133.62,897.125 1128.45,889.291 1122.5,882C 1121.33,881.581 1120.33,880.915 1119.5,880C 1110.43,880.795 1103.26,877.629 1098,870.5C 1079.36,836.211 1061.52,801.544 1044.5,766.5 Z"/></g>
<g><path style="opacity:0.99" fill="#000000" d="M 554.5,982.5 C 645.501,982.333 736.501,982.5 827.5,983C 841.11,1008.05 853.777,1033.55 865.5,1059.5C 748.856,1063.12 632.19,1063.45 515.5,1060.5C 527.967,1034.23 540.967,1008.23 554.5,982.5 Z"/></g>
</svg>
